# xmcd
#
# Track frame offsets:
#	150
#	21766
#	37438
#	53172
#	64020
#	75485
#	90232
#	108822
#	125597
#	126116
#	145038
#	161670
#	178820
#	209260
#	229100
#	231128
#	256160
#
# Disc length: 3540 seconds
#
# Revision: 1
# Processed by: cddbd v1.5.1PL0 Copyright (c) Steve Scherf et al.
# Submitted via: EasyCDDAExtractor 7.0.6.1
#
DISCID=e00dd211
DTITLE=Doug Sahm - The Last Real Texas Blues Band
DYEAR=2003
DGENRE=Blues
TTITLE0=Reconsider Baby
TTITLE1=My Dearest Darling
TTITLE2=Bad Boy
TTITLE3=My Girl Josephine
TTITLE4=I'm a Fool to Care
TTITLE5=Something to Remember You By
TTITLE6=Home at Last
TTITLE7=Do Something For Me
TTITLE8=Intro by Clifford Antone
TTITLE9=Blessed Are These Tears
TTITLE10=Loan A Helping Hand
TTITLE11=When I Fall in Love
TTITLE12=Honky Tonk
TTITLE13=Tell Me the Truth
TTITLE14=Round of Drinks
TTITLE15=T-Bone Shuffle
TTITLE16=Crazy, Crazy Baby
EXTD=Total disc time:  (17)   58:58\n© 2003 Texas Music Group\nCatalog:  TMG -
EXTD=0061\nMCPL  7/19/04\n¯¯¯¯¯¯¯¯¯¯¯¯¯¯¯¯¯¯¯¯¯¯¯¯¯¯¯¯¯¯¯¯¯¯¯\n
EXTT0=
EXTT1=
EXTT2=
EXTT3=
EXTT4=
EXTT5=
EXTT6=
EXTT7=
EXTT8=
EXTT9=
EXTT10=
EXTT11=
EXTT12=
EXTT13=
EXTT14=
EXTT15=
EXTT16=
PLAYORDER=
